<svg width="48" height="48" viewBox="0 0 48 48" fill="none" xmlns="http://www.w3.org/2000/svg">
<path d="M12.5 19C12.5 17.6193 13.6193 16.5 15 16.5H19C20.3807 16.5 21.5 17.6193 21.5 19V25.5H12.5V19Z" stroke="#FF498B" stroke-width="3"/>
<path d="M25.5 19C25.5 17.6193 26.6193 16.5 28 16.5H32C33.3807 16.5 34.5 17.6193 34.5 19V25.5H25.5V19Z" stroke="#FF498B" stroke-width="3"/>
<path d="M7.5 16C7.5 11.3056 11.3056 7.5 16 7.5H31C35.6944 7.5 39.5 11.3056 39.5 16V25.5H7.5V16Z" stroke="#152C5B" stroke-width="3"/>
<mask id="path-4-inside-1_216_21" fill="white">
<path d="M0 28C0 25.7909 1.79086 24 4 24H44C46.2091 24 48 25.7909 48 28V39C48 40.1046 47.1046 41 46 41H2C0.895431 41 0 40.1046 0 39V28Z"/>
</mask>
<path d="M0 28C0 25.7909 1.79086 24 4 24H44C46.2091 24 48 25.7909 48 28V39C48 40.1046 47.1046 41 46 41H2C0.895431 41 0 40.1046 0 39V28Z" stroke="#152C5B" stroke-width="6" mask="url(#path-4-inside-1_216_21)"/>
<line x1="6.5" y1="39.5" x2="6.5" y2="46.5" stroke="#152C5B" stroke-width="3" stroke-linecap="round"/>
<line x1="41.5" y1="39.5" x2="41.5" y2="46.5" stroke="#152C5B" stroke-width="3" stroke-linecap="round"/>
<line x1="39.5" y1="43.5" x2="6.5" y2="43.5" stroke="#152C5B" stroke-width="3" stroke-linecap="round"/>
</svg>
