<svg width="48" height="48" viewBox="0 0 48 48" fill="none" xmlns="http://www.w3.org/2000/svg">
<path d="M26.5 38.88C26.5 40.7245 25.351 42.593 23.0808 44.072C20.8243 45.5419 17.618 46.5 14 46.5C10.382 46.5 7.17566 45.5419 4.91925 44.072C2.64896 42.593 1.5 40.7245 1.5 38.88C1.5 37.0355 2.64896 35.167 4.91925 33.688C7.17566 32.2181 10.382 31.26 14 31.26C17.618 31.26 20.8243 32.2181 23.0808 33.688C25.351 35.167 26.5 37.0355 26.5 38.88Z" stroke="#152C5B" stroke-width="3"/>
<path d="M26.5 12.1585C26.5 13.2557 26.1453 15.6171 25.439 18.6463C24.7429 21.6317 23.7352 25.1399 22.4934 28.4819C21.2458 31.8396 19.7898 34.9537 18.2199 37.1999C16.5805 39.5457 15.1321 40.5 14 40.5C12.8679 40.5 11.4195 39.5457 9.78007 37.1999C8.21026 34.9537 6.75418 31.8396 5.50659 28.4819C4.26486 25.1399 3.25713 21.6317 2.56101 18.6463C1.85469 15.6171 1.50001 13.2557 1.50001 12.1585C1.50001 7.85154 5.98713 1.5 14 1.5C22.0129 1.5 26.5 7.85154 26.5 12.1585Z" fill="#FFFDFD" stroke="#152C5B" stroke-width="3"/>
<path d="M18.5 13.44C18.5 15.7356 16.5436 17.7 14 17.7C11.4564 17.7 9.5 15.7356 9.5 13.44C9.5 11.1444 11.4564 9.17999 14 9.17999C16.5436 9.17999 18.5 11.1444 18.5 13.44Z" stroke="#FF498B" stroke-width="3"/>
</svg>
