<svg width="48" height="46" viewBox="0 0 48 46" fill="none" xmlns="http://www.w3.org/2000/svg">
<path d="M5.1277 20.1553C5.48416 19.1623 6.42564 18.5 7.48069 18.5H40.5193C41.5744 18.5 42.5158 19.1623 42.8723 20.1553L44.6672 25.1553C45.2519 26.7841 44.0447 28.5 42.3142 28.5H5.68581C3.95527 28.5 2.74814 26.7841 3.33283 25.1553L5.1277 20.1553Z" stroke="#152C5B" stroke-width="3"/>
<mask id="path-2-inside-1_216_103" fill="white">
<path d="M8 46C10.2091 46 12 44.2091 12 42L12 28C12 27.4477 11.5523 27 11 27L5 27C4.44772 27 4 27.4477 4 28L4 42C4 44.2091 5.79086 46 8 46Z"/>
</mask>
<path d="M8 46C10.2091 46 12 44.2091 12 42L12 28C12 27.4477 11.5523 27 11 27L5 27C4.44772 27 4 27.4477 4 28L4 42C4 44.2091 5.79086 46 8 46Z" stroke="#152C5B" stroke-width="6" mask="url(#path-2-inside-1_216_103)"/>
<mask id="path-3-inside-2_216_103" fill="white">
<path d="M40 46C42.2091 46 44 44.2091 44 42L44 28C44 27.4477 43.5523 27 43 27L37 27C36.4477 27 36 27.4477 36 28L36 42C36 44.2091 37.7909 46 40 46Z"/>
</mask>
<path d="M40 46C42.2091 46 44 44.2091 44 42L44 28C44 27.4477 43.5523 27 43 27L37 27C36.4477 27 36 27.4477 36 28L36 42C36 44.2091 37.7909 46 40 46Z" stroke="#152C5B" stroke-width="6" mask="url(#path-3-inside-2_216_103)"/>
<line x1="17.5" y1="12.5" x2="17.5" y2="16.5" stroke="#152C5B" stroke-width="3" stroke-linecap="round"/>
<line x1="32.5" y1="12.5" x2="32.5" y2="16.5" stroke="#152C5B" stroke-width="3" stroke-linecap="round"/>
<mask id="path-6-inside-3_216_103" fill="white">
<path d="M18 13C20.2091 13 22 11.2091 22 9L22 4C22 3.44772 21.5523 3 21 3L15 3C14.4477 3 14 3.44772 14 4L14 9C14 11.2091 15.7909 13 18 13Z"/>
</mask>
<path d="M18 13C20.2091 13 22 11.2091 22 9L22 4C22 3.44772 21.5523 3 21 3L15 3C14.4477 3 14 3.44772 14 4L14 9C14 11.2091 15.7909 13 18 13Z" stroke="#FF498B" stroke-width="6" mask="url(#path-6-inside-3_216_103)"/>
<mask id="path-7-inside-4_216_103" fill="white">
<path d="M33 13C35.2091 13 37 11.2091 37 9L37 4C37 3.44772 36.5523 3 36 3L30 3C29.4477 3 29 3.44772 29 4L29 9C29 11.2091 30.7909 13 33 13Z"/>
</mask>
<path d="M33 13C35.2091 13 37 11.2091 37 9L37 4C37 3.44772 36.5523 3 36 3L30 3C29.4477 3 29 3.44772 29 4L29 9C29 11.2091 30.7909 13 33 13Z" stroke="#FF498B" stroke-width="6" mask="url(#path-7-inside-4_216_103)"/>
</svg>
