<svg width="48" height="48" viewBox="0 0 48 48" fill="none" xmlns="http://www.w3.org/2000/svg">
<path d="M15 28.3995C17.3469 26.3966 20.557 25 24.5 25C28.443 25 31.6531 26.3966 34 28.3995" stroke="#152C5B" stroke-width="3" stroke-linecap="round"/>
<path d="M10 20C13.5821 17.0542 18.4817 15 24.5 15C30.5183 15 35.4179 17.0542 39 20" stroke="#152C5B" stroke-width="3" stroke-linecap="round"/>
<path d="M4 11C9.06431 6.87585 15.9914 4 24.5 4C33.0086 4 39.9357 6.87585 45 11" stroke="#152C5B" stroke-width="3" stroke-linecap="round"/>
<path d="M29.5 37.76C29.5 40.0556 27.5436 42.02 25 42.02C22.4564 42.02 20.5 40.0556 20.5 37.76C20.5 35.4644 22.4564 33.5 25 33.5C27.5436 33.5 29.5 35.4644 29.5 37.76Z" stroke="#FF498B" stroke-width="3"/>
</svg>
